<?xml version="1.0" standalone="no"?>
<!DOCTYPE svg PUBLIC "-//W3C//DTD SVG 20010904//EN"
 "http://www.w3.org/TR/2001/REC-SVG-20010904/DTD/svg10.dtd">
<svg version="1.0" xmlns="http://www.w3.org/2000/svg"
 width="240.000000pt" height="240.000000pt" viewBox="0 0 240.000000 240.000000"
 preserveAspectRatio="xMidYMid meet">
<metadata>
Created by potrace 1.11, written by Peter Selinger 2001-2013
</metadata>
<g transform="translate(0.000000,240.000000) scale(0.100000,-0.100000)"
fill="#000000" stroke="none">
<path d="M921 2371 c15 -43 42 -63 73 -55 19 4 26 13 26 29 0 46 -9 55 -61 55
l-48 0 10 -29z"/>
<path d="M1130 2391 c0 -32 57 -36 203 -15 65 10 40 24 -43 24 -69 0 -80 -2
-80 -17 -1 -17 -1 -17 -14 0 -13 17 -66 24 -66 8z"/>
<path d="M1746 2384 c-14 -36 -5 -51 47 -79 28 -15 60 -34 69 -42 9 -8 21 -12
26 -9 15 9 60 89 67 119 l7 27 -105 0 c-86 0 -106 -3 -111 -16z"/>
<path d="M583 2248 c-13 -6 -23 -14 -23 -18 0 -4 21 -25 46 -46 46 -37 47 -37
63 -18 9 11 33 32 54 48 20 16 37 32 37 37 0 13 -150 10 -177 -3z"/>
<path d="M2210 1943 c-61 -11 -50 -36 29 -63 l51 -17 0 24 c0 22 -32 64 -47
62 -5 -1 -19 -4 -33 -6z"/>
<path d="M915 1910 c-16 -11 -37 -20 -46 -20 -9 0 -22 -7 -29 -15 -16 -19 -8
-19 79 1 60 13 68 18 64 35 -7 24 -30 24 -68 -1z"/>
<path d="M1255 1864 c-191 -29 -391 -76 -460 -108 -27 -12 -65 -36 -84 -51
-44 -37 -91 -137 -91 -192 0 -62 44 -191 89 -260 21 -33 42 -69 45 -81 7 -20
70 -52 103 -52 13 0 15 8 10 52 -4 29 -14 83 -24 120 -16 64 -16 71 1 155 10
48 21 92 25 96 12 13 112 37 154 37 40 0 47 -13 23 -46 -12 -15 -17 -17 -27
-6 -25 24 -79 14 -114 -21 -26 -26 -34 -44 -40 -88 -6 -51 -4 -59 42 -149 l48
-95 52 -3 c30 -2 66 3 88 12 l37 16 -7 97 c-7 92 -23 149 -56 194 -10 13 -2
24 44 68 51 48 107 140 107 176 0 21 10 24 122 40 158 22 177 21 189 -15 13
-35 22 -37 57 -10 17 14 29 17 36 10 5 -5 8 -12 5 -14 -2 -2 -65 -37 -139 -76
-167 -89 -169 -91 -140 -120 19 -19 29 -21 70 -16 l47 6 5 -58 c6 -62 39 -138
83 -191 29 -34 54 -38 118 -20 39 10 41 13 51 62 4 15 11 25 15 22 14 -8 24
50 16 95 -6 34 -4 39 9 34 9 -3 16 -4 16 -2 0 17 -61 111 -83 128 -42 33 -34
43 33 38 69 -5 74 3 34 51 -23 27 -24 31 -7 31 10 0 41 -11 70 -24 49 -23 52
-26 62 -78 17 -88 44 -301 42 -337 -2 -51 -30 -91 -97 -138 -84 -59 -127 -81
-228 -115 -49 -16 -119 -50 -157 -75 l-69 -46 -169 -5 -169 -5 -4 28 c-3 24
-8 28 -46 31 -24 2 -52 9 -62 14 -10 6 -27 10 -38 10 -13 0 -31 19 -53 56 -19
32 -45 65 -59 75 -14 10 -69 29 -123 43 -73 18 -106 32 -133 55 -19 17 -39 31
-45 31 -17 0 -23 -32 -10 -52 18 -29 5 -35 -22 -10 -13 12 -27 22 -32 22 -4 0
-32 -16 -61 -35 -30 -20 -61 -35 -70 -33 -10 2 -26 -11 -39 -33 l-23 -35 30
-20 c24 -16 28 -23 22 -44 -4 -14 -8 -63 -9 -109 -2 -81 -3 -86 -34 -113 -17
-15 -41 -28 -52 -28 -18 0 -19 -2 -9 -15 17 -21 118 -20 149 1 22 16 23 19 16
120 -4 57 -4 104 -1 104 30 0 107 -27 133 -46 17 -13 38 -24 46 -24 23 0 47
35 47 68 0 30 2 32 35 32 42 0 90 -22 99 -45 11 -29 6 -39 -8 -20 -14 19 -15
19 -26 -7 -7 -15 -38 -43 -69 -62 -92 -58 -96 -63 -80 -82 22 -27 58 -36 94
-23 29 11 39 9 95 -20 73 -36 111 -39 165 -11 22 11 46 20 55 20 22 0 60 -41
60 -64 0 -10 16 -59 36 -108 36 -90 42 -153 21 -213 -5 -14 -4 -13 4 3 12 23
29 30 29 12 0 -19 48 -34 64 -21 20 16 35 6 29 -18 -4 -15 2 -21 25 -26 16 -3
37 -14 45 -23 22 -26 67 -119 67 -140 0 -11 7 -36 15 -55 8 -20 15 -50 15 -67
l0 -30 311 0 c204 0 308 3 304 10 -3 6 -13 10 -20 10 -8 0 -29 13 -47 28 -18
15 -46 33 -61 40 -26 11 -28 16 -22 45 12 52 23 67 51 65 32 -3 53 -26 34 -38
-36 -23 51 -83 155 -107 52 -12 65 -18 65 -34 0 -18 9 -19 150 -19 l150 0 0
65 c0 55 -3 65 -18 65 -9 0 -23 12 -30 28 -7 15 -31 41 -53 57 -22 17 -65 59
-94 95 -97 119 -107 123 -290 133 -38 2 -40 3 -47 45 -9 55 -9 55 -73 91 -35
20 -69 31 -93 31 -37 0 -62 14 -62 35 0 6 25 37 56 70 31 33 73 83 94 110 60
81 57 80 143 40 42 -19 80 -35 86 -35 14 0 66 104 85 171 8 29 25 104 37 164
12 64 32 128 46 152 16 28 26 64 30 112 6 69 7 71 33 71 15 0 35 9 45 20 26
29 37 118 19 148 -19 30 -44 29 -44 -2 0 -24 -2 -24 -54 -19 -51 5 -53 5 -60
-21 l-7 -27 -71 66 c-109 100 -192 146 -353 192 -129 37 -263 39 -470 7z
m-178 -150 c8 -23 -23 -44 -63 -44 -18 0 -45 -5 -60 -10 -15 -6 -31 -7 -36 -2
-14 14 26 42 79 57 65 18 73 18 80 -1z m1113 -154 c0 -5 -2 -10 -4 -10 -3 0
-8 5 -11 10 -3 6 -1 10 4 10 6 0 11 -4 11 -10z m-635 -11 c10 -15 -4 -61 -17
-57 -18 6 -32 34 -25 52 7 18 32 22 42 5z m-575 -104 c-18 -34 -30 -31 -30 8
0 42 9 52 29 33 13 -13 13 -19 1 -41z m303 -689 c60 -25 85 -75 39 -77 -12 0
-11 -3 6 -9 19 -8 22 -17 23 -72 1 -59 15 -142 18 -108 3 35 17 43 44 25 17
-11 56 -19 107 -22 l80 -6 0 -31 c0 -39 -16 -56 -52 -56 -15 0 -31 -7 -37 -17
-9 -17 -10 -17 -29 0 -25 22 -71 19 -86 -6 -11 -17 -2 -29 29 -40 10 -4 -55
-156 -67 -157 -4 0 -22 33 -41 73 -75 155 -76 164 -56 317 7 53 17 90 27 97
14 11 13 15 -4 34 -13 15 -26 19 -46 15 -24 -5 -28 -2 -28 18 0 40 19 45 73
22z m651 -348 c9 -12 13 -24 11 -27 -6 -5 -45 29 -45 41 0 15 19 8 34 -14z
m-299 -68 c14 -22 17 -117 6 -139 -17 -31 -37 -13 -56 52 -23 79 -21 97 14 97
17 0 33 -5 36 -10z m-128 -30 c13 0 26 -7 30 -16 10 -28 -16 -158 -37 -179
-29 -28 -42 -9 -48 73 -6 86 4 150 21 133 6 -6 21 -11 34 -11z"/>
<path d="M1308 1064 c-22 -11 -28 -22 -28 -48 0 -51 18 -60 79 -40 84 27 89
59 14 91 -38 15 -32 16 -65 -3z"/>
<path d="M1994 24 c3 -9 6 -18 6 -20 0 -2 18 -4 40 -4 22 0 40 5 40 10 0 12
-9 16 -59 24 -27 5 -32 3 -27 -10z"/>
</g>
</svg>
